<svg width="100" height="100" viewBox="0 0 100 100" fill="none" xmlns="http://www.w3.org/2000/svg">
<g clip-path="url(#clip0_21_40)">
<path fill-rule="evenodd" clip-rule="evenodd" d="M50 1.2334C22.3875 1.2334 -1.90735e-06 23.6167 -1.90735e-06 51.2334C-1.90735e-06 73.3251 14.325 92.0667 34.1917 98.6792C36.6917 99.1417 37.6083 97.5959 37.6083 96.2751C37.6083 95.0834 37.5625 91.1459 37.5417 86.9667C23.6333 89.9917 20.6958 81.0667 20.6958 81.0667C18.4208 75.2876 15.1458 73.7501 15.1458 73.7501C10.6083 70.6459 15.4875 70.7126 15.4875 70.7126C20.5083 71.0667 23.15 75.8667 23.15 75.8667C27.6083 83.5084 34.8458 81.3001 37.7 80.0209C38.15 76.7876 39.4458 74.5834 40.875 73.3334C29.7708 72.0709 18.0958 67.7834 18.0958 48.6251C18.0958 43.1667 20.05 38.7042 23.25 35.2042C22.7292 33.9417 21.0167 28.8584 23.7333 21.9709C23.7333 21.9709 27.9333 20.6292 37.4875 27.0959C41.475 25.9876 45.75 25.4334 50 25.4126C54.25 25.4334 58.5292 25.9876 62.525 27.0959C72.0667 20.6251 76.2625 21.9709 76.2625 21.9709C78.9833 28.8584 77.2708 33.9417 76.7542 35.2042C79.9583 38.7042 81.9 43.1667 81.9 48.6251C81.9 67.8292 70.2042 72.0584 59.0708 73.2959C60.8625 74.8459 62.4625 77.8917 62.4625 82.5542C62.4625 89.2459 62.4042 94.6292 62.4042 96.2751C62.4042 97.6042 63.3042 99.1667 65.8375 98.6751C85.6958 92.0542 100.004 73.3209 100.004 51.2376C100 23.6209 77.6125 1.2334 50 1.2334Z" fill="#FCD743"/>
<path d="M18.9375 73.025C18.8292 73.275 18.4375 73.35 18.0792 73.1791C17.7167 73.0166 17.5125 72.675 17.6292 72.4291C17.7375 72.175 18.1292 72.1041 18.4917 72.275C18.8542 72.4333 19.0625 72.775 18.9375 73.025Z" fill="#FCD743"/>
<path d="M20.9625 75.2834C20.725 75.5042 20.2583 75.4001 19.9417 75.0542C19.6125 74.7042 19.5542 74.2376 19.7958 74.0167C20.0417 73.7959 20.4917 73.9001 20.8208 74.2501C21.15 74.5959 21.2125 75.0584 20.9625 75.2834Z" fill="#FCD743"/>
<path d="M22.9333 78.1627C22.625 78.3752 22.125 78.1752 21.8167 77.7336C21.5083 77.2877 21.5083 76.7544 21.825 76.5419C22.1333 76.3294 22.6292 76.5211 22.9417 76.9627C23.2458 77.4127 23.2458 77.9461 22.9333 78.1627Z" fill="#FCD743"/>
<path d="M25.6333 80.9458C25.3583 81.25 24.775 81.1667 24.35 80.7542C23.9125 80.35 23.7917 79.7792 24.0667 79.475C24.3458 79.1708 24.9333 79.2583 25.3625 79.6667C25.7958 80.0708 25.925 80.6458 25.6333 80.9458Z" fill="#FCD743"/>
<path d="M29.3625 82.5585C29.2417 82.9501 28.6792 83.1293 28.1125 82.9626C27.5458 82.7918 27.175 82.3335 27.2917 81.9376C27.4083 81.5418 27.975 81.3585 28.5458 81.5376C29.1083 81.7043 29.4792 82.1626 29.3625 82.5585Z" fill="#FCD743"/>
<path d="M33.4542 82.8584C33.4667 83.2709 32.9875 83.6126 32.3917 83.6209C31.7958 83.6334 31.3083 83.3001 31.3042 82.8959C31.3042 82.4792 31.775 82.1417 32.3708 82.1292C32.9667 82.1167 33.4542 82.4501 33.4542 82.8584Z" fill="#FCD743"/>
<path d="M37.2625 82.2123C37.3333 82.6123 36.9208 83.029 36.3292 83.1373C35.75 83.2457 35.2125 82.9957 35.1375 82.5957C35.0667 82.1832 35.4875 81.7707 36.0667 81.6624C36.6542 81.5582 37.1875 81.7998 37.2625 82.2123Z" fill="#FCD743"/>
</g>
<defs>
<clipPath id="clip0_21_40">
<rect width="100" height="100" fill="white"/>
</clipPath>
</defs>
</svg>
