<svg width="100" height="100" viewBox="0 0 100 100" fill="none" xmlns="http://www.w3.org/2000/svg">
<g clip-path="url(#clip0_21_50)">
<path fill-rule="evenodd" clip-rule="evenodd" d="M50 0C22.3875 0 0 22.3875 0 50C0 77.6125 22.3875 100 50 100C77.6125 100 100 77.6125 100 50C100 22.3875 77.6125 0 50 0ZM73.175 34.0042C72.425 41.9083 69.1667 61.0958 67.5125 69.95C66.8125 73.7 65.4292 74.9542 64.0958 75.075C61.1917 75.3417 58.9875 73.1542 56.175 71.3125C51.775 68.4292 49.2875 66.6333 45.0167 63.8167C40.0792 60.5625 43.2792 58.775 46.0917 55.8542C46.8292 55.0875 59.6208 43.45 59.8708 42.3958C59.9 42.2625 59.9333 41.7708 59.6375 41.5125C59.3417 41.2542 58.9125 41.3417 58.6042 41.4125C58.1625 41.5125 51.1333 46.1583 37.5125 55.35C35.5167 56.7208 33.7083 57.3875 32.0875 57.3542C30.3042 57.3167 26.8708 56.3458 24.3167 55.5125C21.1875 54.4958 18.6958 53.9542 18.9125 52.2292C19.025 51.3292 20.2625 50.4083 22.6292 49.4667C37.2042 43.1167 46.925 38.9292 51.7875 36.9042C65.675 31.1292 68.5583 30.125 70.4417 30.0917C72.8 30.0583 73.3667 32.0042 73.175 34.0042Z" fill="#FCD743"/>
</g>
<defs>
<clipPath id="clip0_21_50">
<rect width="100" height="100" fill="white"/>
</clipPath>
</defs>
</svg>
