<svg width="100" height="100" viewBox="0 0 100 100" fill="none" xmlns="http://www.w3.org/2000/svg">
<g clip-path="url(#clip0_21_53)">
<path d="M92.9833 7.01667C85.9667 0 74.6708 0 52.0833 0H47.9167C25.3292 0 14.0333 0 7.01667 7.01667C0 14.0333 0 25.3292 0 47.9167V52.0833C0 74.6708 0 85.9625 7.01667 92.9833C14.0333 100.004 25.3292 100 47.9167 100H52.0833C74.6708 100 85.9625 100 92.9833 92.9833C100 85.9667 100 74.6708 100 52.0833V47.9167C100 25.3292 100 14.0333 92.9833 7.01667ZM81.2625 70.8333H73.9708C71.1917 70.8333 70.375 68.6167 65.4292 63.6708C61.1 59.5 59.2458 58.9583 58.1667 58.9583C56.6958 58.9583 56.2583 59.375 56.2583 61.4583V67.9958C56.2583 69.7875 55.6875 70.8333 51.05 70.8333C43.325 70.8333 34.8333 66.1417 28.8042 57.4917C19.7625 44.8208 17.2917 35.2417 17.2917 33.3125C17.2917 32.2292 17.7083 31.25 19.7917 31.25H27.0875C28.95 31.25 29.65 32.0667 30.35 34.0833C33.9167 44.4708 39.9333 53.55 42.4042 53.55C43.3292 53.55 43.7542 53.1208 43.7542 50.7708V40.0333C43.4833 35.0917 40.8542 34.6833 40.8542 32.925C40.8542 32.1125 41.55 31.25 42.7083 31.25H54.1708C55.7167 31.25 56.2542 32.075 56.2542 33.9292V48.375C56.2542 49.9167 56.925 50.4583 57.3875 50.4583C58.3167 50.4583 59.0875 49.9167 60.7875 48.2167C66.0417 42.3458 69.75 33.3083 69.75 33.3083C70.2167 32.225 71.0667 31.2458 72.925 31.2458H80.2167C82.4208 31.2458 82.8875 32.3792 82.4208 33.925C81.4917 38.175 72.6083 50.6875 72.6083 50.6875C71.8333 51.925 71.525 52.5417 72.6083 53.9333C73.3833 55.0167 75.9292 57.1792 77.6292 59.1875C80.7625 62.7125 83.125 65.6833 83.7833 67.7333C84.3917 69.7917 83.3458 70.8333 81.2625 70.8333Z" fill="#FCD743"/>
</g>
<defs>
<clipPath id="clip0_21_53">
<rect width="100" height="100" fill="white"/>
</clipPath>
</defs>
</svg>
