<svg width="100" height="100" viewBox="0 0 100 100" fill="none" xmlns="http://www.w3.org/2000/svg">
<g clip-path="url(#clip0_21_56)">
<path fill-rule="evenodd" clip-rule="evenodd" d="M85.2625 14.5333C75.9042 5.16667 63.4625 0.00416667 50.2083 0C22.8958 0 0.666662 22.225 0.654162 49.55C0.649995 58.2833 2.93333 66.8083 7.27083 74.325L0.237495 100L26.5042 93.1083C33.7417 97.0583 41.8917 99.1375 50.1833 99.1417H50.2042C77.5125 99.1417 99.7458 76.9125 99.7583 49.5875C99.7667 36.35 94.6167 23.8958 85.2625 14.5333ZM50.2083 90.7708H50.1917C42.8 90.7708 35.5542 88.7833 29.2292 85.0292L27.725 84.1375L12.1375 88.225L16.3 73.025L15.3208 71.4667C11.1958 64.9083 9.02083 57.3292 9.02499 49.55C9.03333 26.8417 27.5125 8.36667 50.2292 8.36667C61.2292 8.36667 71.5708 12.6583 79.3458 20.4417C87.1208 28.2292 91.4 38.575 91.3958 49.5792C91.3833 72.2958 72.9083 90.7708 50.2083 90.7708ZM72.8 59.925C71.5625 59.3042 65.475 56.3083 64.3375 55.8958C63.2042 55.4833 62.3792 55.275 61.55 56.5125C60.7208 57.75 58.3542 60.5417 57.6292 61.3708C56.9083 62.1958 56.1833 62.3 54.9458 61.6792C53.7083 61.0583 49.7167 59.7542 44.9875 55.5333C41.3083 52.25 38.8208 48.1958 38.1 46.9542C37.3792 45.7125 38.025 45.0458 38.6417 44.4292C39.2 43.875 39.8792 42.9833 40.5 42.2583C41.125 41.5417 41.3292 41.025 41.7458 40.1958C42.1583 39.3708 41.9542 38.6458 41.6417 38.025C41.3292 37.4083 38.8542 31.3125 37.825 28.8333C36.8208 26.4167 35.8 26.7458 35.0375 26.7083C34.3167 26.6708 33.4917 26.6667 32.6625 26.6667C31.8375 26.6667 30.4958 26.975 29.3625 28.2167C28.2292 29.4583 25.0292 32.4542 25.0292 38.5458C25.0292 44.6417 29.4667 50.5292 30.0833 51.3542C30.7 52.1792 38.8125 64.6875 51.2333 70.05C54.1875 71.325 56.4958 72.0875 58.2917 72.6583C61.2583 73.6 63.9583 73.4667 66.0917 73.15C68.4708 72.7958 73.4167 70.1542 74.45 67.2625C75.4833 64.3708 75.4833 61.8875 75.1708 61.375C74.8625 60.8542 74.0375 60.5458 72.8 59.925Z" fill="#FCD743"/>
</g>
<defs>
<clipPath id="clip0_21_56">
<rect width="100" height="100" fill="white"/>
</clipPath>
</defs>
</svg>
